# xmcd
#
# Track frame offsets: 
#        150
#        17414
#        38286
#        60468
#        84286
#        127676
#        146208
#        174567
#        194342
#        210187
#        260499
#        280349
#        306606
#        345802
#
# Disc length: 4734 seconds
#
# Revision: 0
# Processed by: cddbd v1.5.2PL0 Copyright (c) Steve Scherf et al.
# Submitted via: ExactAudioCopy v0.95b4
#
DISCID=b4127c0e
DTITLE=Van Morrison - Still On Top Vol 3 Disc 3
DYEAR=2007
DGENRE=Celtic
TTITLE0=Hey Mr DJ
TTITLE1=In The Forest
TTITLE2=Queen Of The Slipstream
TTITLE3=Rave On John Donne
TTITLE4=Hymns To The Silence
TTITLE5=Crazy Jane On God (with Moving Hearts)
TTITLE6=Rough God Goes Riding
TTITLE7=Steal My Heart Away
TTITLE8=One Irish Rover
TTITLE9=Listen To The Lion
TTITLE10=Streets Of Arklow
TTITLE11=The Beauty Of The Days Gone By
TTITLE12=Take It Where You Find It
TTITLE13=Coney Island
EXTD=
EXTT0=
EXTT1=
EXTT2=
EXTT3=
EXTT4=
EXTT5=
EXTT6=
EXTT7=
EXTT8=
EXTT9=
EXTT10=
EXTT11=
EXTT12=
EXTT13=
PLAYORDER=
